<?xml version="1.0" encoding="UTF-8"?>
<!-- Created with Inkscape (http://www.inkscape.org/) -->
<svg width="69.236mm" height="67.261mm" version="1.1" viewBox="0 0 69.236 67.261" xmlns="http://www.w3.org/2000/svg">
 <g transform="translate(-23.337 -83.425)">
  <g transform="matrix(.54191 -.44164 .44164 .54191 -35.34 91.385)">
   <rect x="30.193" y="100.94" width="97.743" height="39.208" ry="19.604" fill="none" stroke="#000" stroke-linecap="round" stroke-linejoin="round" stroke-width="6.5"/>
   <path d="m62.681 103.73c-4.17 0.02-8.3404 3e-3 -12.51 0.0721-1.381 0.0445-2.7789 0.0313-4.1354 0.32842-0.84618 0.21728-1.6704 0.51467-2.4884 0.81953-3.6047 1.4165-6.6434 4.163-8.4943 7.5571-0.98216 1.7889-1.6612 3.7538-1.8968 5.7853-0.31553 2.6662-0.08276 5.42 0.82743 7.9541 1.3372 3.6982 4.017 6.8853 7.4229 8.8488 1.8912 1.095 3.9962 1.8338 6.1644 2.118 1.8631 0.0698 3.7285 0.0654 5.5927 0.0865 8.1806 0.0572 16.362 0.0389 24.542 0.055 0.13075-0.0847 0.33569-0.1 0.41754-0.23041 0.08887-0.18725 0.137-0.3819 0.11215-0.5898v-32.32c-0.08486-0.13071-0.10039-0.33576-0.23097-0.41743-0.18772-0.0885-0.38268-0.13645-0.59079-0.11087-4.9109 0.0147-9.8219 0.0294-14.733 0.0441z"/>
  </g>
  <g transform="matrix(.55945 0 0 .55945 93.935 37.842)" stroke="#000" stroke-linecap="round" stroke-linejoin="round" stroke-width="3.5749">
   <rect x="-106.31" y="83.266" width="8.3795" height="44.516" ry="4.1897"/>
   <rect transform="rotate(90)" x="101.6" y="79.889" width="8.3795" height="44.516" ry="4.1897"/>
  </g>
 </g>
</svg>
